<?xml version="1.0" encoding="UTF-8" standalone="no"?>
<svg
  width="100mm"
  height="100mm"
  viewBox="0 0 100 100"
  version="1.1"
  xmlns="http://www.w3.org/2000/svg">
  <rect
    style="fill:#2680eb"
    width="100"
    height="100"
    x="0"
    y="0" />
  <path
    style="fill:#ffffff"
    d="m 53.257714,94.607458 c 5.92e-4,-0.03571 0.247822,-0.194261 0.549401,-0.352336 1.010779,-0.529814 2.148997,-1.596083 2.77312,-2.59783 l 0.233509,-0.374793 -0.290676,0.143428 c -0.616873,0.304383 -1.911432,0.73468 -2.951684,0.981108 -4.354879,1.031637 -8.980705,0.147613 -12.607788,-2.409426 -1.23817,-0.87289 -1.268135,-0.821832 0.484058,-0.824795 1.115372,-0.0019 1.690303,-0.04243 2.192287,-0.154601 0.62414,-0.139467 2.086642,-0.567951 2.086642,-0.611346 0,-0.01016 -0.511027,-0.0023 -1.135614,0.01761 -1.216437,0.03864 -2.405708,-0.06741 -3.719615,-0.331692 -5.30039,-1.066134 -9.677633,-4.773445 -11.459138,-9.705332 -0.395299,-1.094339 -0.619529,-1.952991 -0.531853,-2.03665 0.03162,-0.03016 0.31575,0.174587 0.631408,0.455011 1.794399,1.594112 4.389647,2.863142 6.982729,3.414431 1.15264,0.245051 1.211456,0.201912 0.295812,-0.216967 -5.834051,-2.668897 -9.938664,-7.478571 -11.343558,-13.292074 -0.322011,-1.332494 -0.386733,-1.783921 -0.496451,-3.462684 -0.145954,-2.233202 0.117439,-4.443698 0.783936,-6.579101 0.452522,-1.449843 1.063411,-2.943283 1.203946,-2.943283 0.03153,0 0.132801,0.396698 0.225052,0.881552 0.624675,3.283174 2.064422,6.639496 4.077963,9.506503 0.718823,1.023505 2.210653,2.809565 2.783793,3.332834 l 0.379271,0.346268 -0.700629,-1.340288 c -4.68438,-8.961127 -6.176121,-15.87187 -4.756767,-22.036535 0.936673,-4.068244 3.318015,-7.666221 7.072294,-10.685552 1.131357,-0.90988 1.126168,-0.908447 1.059275,-0.292742 -0.316169,2.910107 -0.307587,8.154135 0.01748,10.679009 0.346272,2.689613 0.987187,5.148738 1.872624,7.185072 0.486948,1.119887 1.364331,2.7182 1.283052,2.337312 -3.487559,-16.343238 -0.607231,-29.041612 8.735987,-38.513968 3.31771,-3.363565 7.820749,-6.5189519 12.926022,-9.0575724 0.810658,-0.4031033 1.517797,-0.732915 1.571419,-0.732915 0.05362,0 -0.309565,1.1394399 -0.807081,2.5320885 -3.572992,10.0015159 -6.531398,20.3329339 -8.050081,28.1126729 -2.803701,14.362499 -2.101252,24.575293 2.116719,30.774612 0.815199,1.198129 1.295528,1.747641 2.837569,3.246267 5.428408,5.275575 7.896121,11.723789 6.476717,16.923872 -1.204891,4.414199 -5.029183,7.066429 -10.987755,7.620245 -1.524608,0.141704 -1.814873,0.151721 -1.813395,0.06259 z M 68.736976,82.630432 c -0.02389,-0.114013 -0.10808,-0.606434 -0.187091,-1.094268 -0.49985,-3.086213 -2.086833,-6.547368 -4.425373,-9.651587 -0.95683,-1.270113 -1.847039,-2.273897 -3.244884,-3.658872 -1.50376,-1.489915 -1.768272,-1.814963 -1.936891,-2.380173 -0.631748,-2.117619 -0.538095,-4.678525 0.259597,-7.098504 0.330237,-1.00185 0.966166,-2.46278 1.526114,-3.505969 0.255565,-0.476118 0.476797,-0.88948 0.491626,-0.918581 0.01483,-0.0291 -0.454251,-0.07518 -1.042402,-0.102411 -1.329211,-0.06153 -2.370737,-0.330044 -3.248509,-0.837492 -0.697677,-0.403334 -1.349103,-0.957981 -1.547084,-1.317239 -0.158226,-0.287121 -0.255268,-0.252852 1.671166,-0.59016 8.199317,-1.435655 13.753212,-0.81888 16.53594,1.836358 0.485428,0.463189 1.224434,1.473681 1.438661,1.967176 0.139463,0.321268 0.04764,0.433141 -0.360449,0.439168 -0.124744,0.0018 -0.728345,0.09788 -1.341333,0.213424 -2.408855,0.454042 -3.882133,1.041411 -4.804528,1.915479 -1.043194,0.988538 -1.280389,2.065597 -0.849308,3.856555 0.168962,0.701965 0.682666,1.955812 1.732531,4.228763 1.101842,2.385478 1.681192,3.798111 2.033665,4.958699 1.412276,4.650192 0.627447,8.24799 -2.589224,11.869485 -0.03783,0.0426 -0.08834,-0.01583 -0.112224,-0.129851 z" />
</svg>
