<?xml version="1.0" encoding="UTF-8" standalone="no"?>
<svg
   width="1024pt"
   height="1024pt"
   viewBox="0 0 361.24444 361.24444"
   version="1.1"
   id="svg1"
   sodipodi:docname="iwriter-01.svg"
   inkscape:version="1.4 (e7c3feb1, 2024-10-09)"
   xmlns:inkscape="http://www.inkscape.org/namespaces/inkscape"
   xmlns:sodipodi="http://sodipodi.sourceforge.net/DTD/sodipodi-0.dtd"
   xmlns="http://www.w3.org/2000/svg"
   xmlns:svg="http://www.w3.org/2000/svg">
  <defs
     id="defs1" />
  <sodipodi:namedview
     id="namedview1"
     pagecolor="#ffffff"
     bordercolor="#000000"
     borderopacity="0.25"
     inkscape:showpageshadow="2"
     inkscape:pageopacity="0.0"
     inkscape:pagecheckerboard="0"
     inkscape:deskcolor="#d1d1d1"
     inkscape:document-units="mm"
     showgrid="false"
     inkscape:zoom="0.32427117"
     inkscape:cx="692.3218"
     inkscape:cy="622.93543"
     inkscape:window-width="1512"
     inkscape:window-height="917"
     inkscape:window-x="0"
     inkscape:window-y="65"
     inkscape:window-maximized="0"
     inkscape:current-layer="svg1" />
  <path
     style="fill:#000000;stroke-width:2.15893;fill-opacity:0"
     d="m 187.65537,276.9266 c 0.001,-0.0771 0.53503,-0.41941 1.18612,-0.76067 2.18219,-1.14383 4.63952,-3.44583 5.98695,-5.60852 l 0.50413,-0.80915 -0.62754,0.30964 c -1.33179,0.65714 -4.12664,1.58612 -6.37247,2.11815 -9.40185,2.22722 -19.38867,0.31866 -27.21926,-5.20177 -2.67312,-1.88451 -2.73781,-1.77428 1.04504,-1.78067 2.40801,-0.004 3.64924,-0.0916 4.73299,-0.3338 1.34747,-0.30109 4.5049,-1.22617 4.5049,-1.31985 0,-0.022 -1.10327,-0.005 -2.45171,0.0378 -2.62619,0.0834 -5.19374,-0.14552 -8.03037,-0.71609 -11.44314,-2.3017 -20.89327,-10.30551 -24.73941,-20.95309 -0.85342,-2.36259 -1.33752,-4.21635 -1.14823,-4.39697 0.0683,-0.0651 0.68168,0.37692 1.36316,0.98234 3.87398,3.44156 9.47692,6.1813 15.07519,7.3715 2.48846,0.52904 2.61544,0.43591 0.63863,-0.46842 -12.59527,-5.76195 -21.45682,-16.14567 -24.48988,-28.69659 -0.6952,-2.87675 -0.83493,-3.85134 -1.0718,-7.47567 -0.3151,-4.82131 0.25353,-9.5936 1.69246,-14.20378 0.97696,-3.1301 2.29582,-6.35433 2.59923,-6.35433 0.0681,0 0.28671,0.85645 0.48586,1.90321 1.34863,7.08812 4.45694,14.33417 8.80402,20.52382 1.55188,2.20967 4.77264,6.06564 6.01,7.19534 l 0.81882,0.74757 -1.51261,-2.89359 c -10.11322,-19.34639 -13.33378,-34.26616 -10.2695,-47.57521 2.02221,-8.78304 7.16334,-16.55079 15.26855,-23.0693 2.44252,-1.96436 2.43131,-1.96127 2.28689,-0.63201 -0.68258,6.2827 -0.66405,17.60416 0.0378,23.05517 0.74758,5.80668 2.13126,11.11574 4.04285,15.51204 1.05129,2.41774 2.94549,5.86838 2.77002,5.04607 -7.52938,-35.28381 -1.31097,-62.69864 18.86034,-83.14874 7.16268,-7.261689 16.8844,-14.073931 27.9063,-19.55462 1.75015,-0.870273 3.27681,-1.582308 3.39257,-1.582308 0.11574,0 -0.66832,2.459964 -1.74242,5.466588 -7.71382,21.59251 -14.1008,43.89727 -17.37952,60.69314 -6.05298,31.00755 -4.53644,53.0562 4.56984,66.44006 1.75995,2.58667 2.79694,3.77303 6.12609,7.00845 11.71953,11.38956 17.04713,25.31077 13.98275,36.53736 -2.60127,9.52992 -10.85763,15.25589 -23.72173,16.45153 -3.29152,0.30596 -3.91818,0.32755 -3.91499,0.13513 z m 33.41856,-25.8575 c -0.0516,-0.24613 -0.23334,-1.30925 -0.4039,-2.36244 -1.07913,-6.6629 -4.50531,-14.13528 -9.55404,-20.83705 -2.06573,-2.74208 -3.98762,-4.90917 -7.00546,-7.89923 -3.24651,-3.21661 -3.81757,-3.91837 -4.18161,-5.13861 -1.36389,-4.57178 -1.1617,-10.10058 0.56046,-15.32514 0.71295,-2.16291 2.08588,-5.31695 3.29476,-7.56912 0.55174,-1.0279 1.02937,-1.92032 1.06138,-1.98315 0.0321,-0.0628 -0.98069,-0.16231 -2.25046,-0.2211 -2.86967,-0.13285 -5.11825,-0.71254 -7.01329,-1.80808 -1.50623,-0.87077 -2.91261,-2.06821 -3.34004,-2.84382 -0.3416,-0.61987 -0.5511,-0.54589 3.60792,-1.27411 17.70171,-3.09947 29.69215,-1.7679 35.69985,3.96455 1.048,0.99999 2.64346,3.18157 3.10596,4.24699 0.30108,0.69359 0.10284,0.93512 -0.77818,0.94813 -0.26931,0.004 -1.57244,0.21128 -2.89584,0.46077 -5.20053,0.98024 -8.38123,2.24833 -10.37261,4.13537 -2.25218,2.13418 -2.76426,4.45947 -1.83359,8.32601 0.36476,1.51549 1.47382,4.22246 3.7404,9.12958 2.37879,5.15007 3.62957,8.19984 4.39053,10.70546 3.049,10.03941 1.35461,17.80679 -5.58994,25.62532 -0.0817,0.092 -0.1907,-0.0343 -0.24226,-0.28032 z"
     id="path1" />
</svg>
